<?xml version="1.0" standalone="no"?>
<!DOCTYPE svg PUBLIC "-//W3C//DTD SVG 1.1//EN" "http://www.w3.org/Graphics/SVG/1.1/DTD/svg11.dtd">
<svg xmlns="http://www.w3.org/2000/svg" viewBox="10 0 282 100" style="background-color:#ffffff00">
    <path fill="#fff" d="M73.2 93.825s-11.677.025-18.15.025c-24.218 0-44.25 1.968-44.25-22.25S30.832 6.15 55.05 6.15c6.473 0 18.144.012 18.144.012"/>
    <path fill="#fff" d="M290.165 53.95h-.5l-1.03 2.327c-.04.09-.09.228-.157.41h-.014c-.023-.087-.073-.22-.15-.4l-1.01-2.337h-.54v3.35h.4v-2.243c0-.303-.006-.522-.02-.656h.01c.034.16.066.27.1.35l1.123 2.56h.188l1.126-2.57c.03-.06.07-.17.1-.32h.01c-.02.26-.03.48-.03.65v2.24h.4v-3.35zm-3.965 0h-2.3v.35h.95v3h.4v-3h.95v-.35zm-34.225 2.6L259.5 43.5h-15.05l7.525 13.05zM245.5 90.8v-5.206l4.54 5.206h.16v-6.9h-.7v5.22l-4.552-5.22h-.148v6.9h.7zm-7.563-6.572c-.552.32-.988.76-1.307 1.32-.32.564-.48 1.174-.48 1.832 0 .99.35 1.83 1.053 2.526.702.696 1.563 1.044 2.584 1.044 1.007 0 1.86-.35 2.562-1.048.7-.7 1.05-1.55 1.05-2.554 0-1.013-.36-1.866-1.06-2.56-.71-.69-1.58-1.038-2.62-1.038-.65 0-1.24.16-1.8.478zm3.3.57c.465.267.824.62 1.08 1.063.255.45.383.94.383 1.49s-.128 1.05-.384 1.5c-.255.45-.61.81-1.067 1.07-.46.26-.96.39-1.49.39-.81 0-1.49-.28-2.06-.84-.57-.56-.86-1.25-.86-2.07 0-.55.12-1.05.38-1.5.25-.45.61-.81 1.07-1.07.46-.26.94-.4 1.45-.4.52 0 1.01.14 1.48.4zM234.2 90.8h.7v-6.9h-.7v6.9zm-3.15-6.2v6.2h.7v-6.2h1.55v-.7h-3.8v.7h1.55zm-3.517-.473c-.516-.25-1.094-.377-1.734-.377-1.06 0-1.94.343-2.65 1.028s-1.06 1.53-1.06 2.532c0 .955.29 1.77.87 2.442.69.8 1.64 1.198 2.84 1.198.63 0 1.2-.126 1.71-.375.51-.25.93-.605 1.28-1.063l-.55-.412c-.65.8-1.46 1.2-2.42 1.2-.88 0-1.6-.28-2.18-.842-.58-.56-.87-1.262-.87-2.1 0-.556.13-1.056.38-1.5.25-.445.62-.8 1.09-1.063.46-.263.97-.395 1.52-.395.5 0 .96.102 1.38.305.42.203.78.5 1.08.895l.54-.417c-.33-.453-.75-.805-1.27-1.056zM216.1 88.052c0 .698.042 1.18.127 1.45.136.436.404.786.803 1.05.4.265.88.398 1.44.398.517 0 .957-.14 1.32-.42.365-.28.607-.61.728-.99.12-.378.182-.874.182-1.488V83.9h-.7v4.155c0 .543-.023.9-.07 1.075-.067.244-.17.45-.31.623-.143.172-.318.306-.53.403-.21.096-.428.144-.657.144-.264 0-.526-.06-.786-.184s-.454-.276-.58-.46c-.125-.182-.204-.408-.24-.68-.018-.12-.027-.428-.027-.92V83.9h-.7v4.152zm-4.978 2.748c.85 0 1.512-.125 1.983-.375.472-.25.856-.638 1.15-1.163.297-.525.445-1.134.445-1.825 0-.8-.187-1.49-.56-2.068-.373-.58-.89-.99-1.552-1.23-.46-.17-1.202-.25-2.222-.25h-1.416v6.9h2.172zm-1.472-6.2h.477c.968 0 1.664.065 2.085.195.562.172 1 .49 1.315.957.315.465.473 1.027.473 1.684 0 .626-.145 1.155-.436 1.588-.29.434-.69.734-1.196.9-.36.117-1.007.176-1.94.176h-.778v-5.5zm-7.563-.372c-.552.32-.988.76-1.307 1.32-.32.564-.48 1.174-.48 1.832 0 .99.35 1.83 1.053 2.526.702.696 1.563 1.044 2.584 1.044 1.007 0 1.86-.35 2.562-1.048.7-.7 1.05-1.55 1.05-2.554 0-1.013-.36-1.866-1.06-2.56-.71-.69-1.58-1.038-2.62-1.038-.65 0-1.24.16-1.8.478zm3.3.57c.465.267.824.62 1.08 1.063.255.45.383.94.383 1.49s-.128 1.05-.384 1.5c-.255.45-.61.81-1.067 1.07-.46.26-.96.39-1.49.39-.81 0-1.49-.28-2.06-.84-.57-.56-.86-1.25-.86-2.07 0-.55.12-1.05.38-1.5.25-.45.61-.81 1.07-1.07.46-.26.94-.4 1.45-.4.52 0 1.01.14 1.47.4zM194.75 90.8h.7v-3.2h.377l2.5 3.2h.873l-2.498-3.2c.582-.003 1.038-.077 1.368-.223.33-.146.585-.36.763-.646.178-.28.267-.61.267-.99 0-.45-.13-.83-.388-1.14-.26-.31-.594-.51-1.006-.6-.275-.06-.8-.09-1.57-.09h-1.386v6.9zm1.932-6.2c.48 0 .822.04 1.028.12.206.08.373.212.5.398.126.186.19.392.19.62 0 .232-.063.443-.188.632-.125.19-.3.325-.524.41-.223.087-.57.13-1.034.13l-1.204-.01v-2.3h1.232zm-7.632 6.2h.7v-3.2h.49c.85 0 1.433-.037 1.744-.112.425-.104.76-.305 1.002-.604.242-.3.364-.68.364-1.14 0-.46-.125-.838-.374-1.14-.25-.303-.57-.503-.964-.6-.275-.07-.805-.104-1.59-.104h-1.372v6.9zm1.916-6.2c.464 0 .8.04 1.004.12.203.08.368.214.493.403.125.19.187.396.187.623 0 .233-.063.444-.188.633-.124.18-.296.32-.514.4-.218.08-.563.12-1.033.12l-1.165-.02v-2.3h1.216zm-9.12 6.006c.34.23.722.344 1.142.344.546 0 1.01-.184 1.39-.553.38-.37.572-.804.572-1.305 0-.347-.112-.692-.334-1.036-.224-.343-.635-.736-1.234-1.178-.505-.374-.804-.605-.894-.694-.167-.166-.282-.32-.344-.462-.063-.14-.094-.288-.094-.44 0-.248.09-.456.268-.626.18-.17.41-.256.69-.256.22 0 .422.055.607.166.185.11.41.338.672.684l.563-.427c-.317-.41-.618-.69-.902-.843-.285-.153-.59-.23-.916-.23-.308 0-.593.07-.855.21-.263.14-.466.33-.61.574-.145.243-.217.51-.217.806 0 .372.123.718.37 1.037.144.193.507.507 1.092.942.58.43.98.8 1.2 1.1.158.22.238.45.238.69 0 .2-.055.4-.163.58-.11.18-.267.33-.474.44-.208.11-.43.16-.666.16-.553 0-1.04-.4-1.46-1.2l-.587.35c.288.54.603.92.945 1.15zm-5.396.194h3.9v-.7h-3.2v-2.65h3.2v-.7h-3.2V84.6h3.25v-.7h-3.95v6.9zm-5.85 0h.7v-3.2h.377l2.5 3.2h.873l-2.498-3.2c.582-.003 1.038-.077 1.368-.223.33-.146.585-.36.763-.646.178-.28.267-.61.267-.99 0-.45-.13-.83-.388-1.14-.26-.31-.594-.51-1.007-.6-.275-.06-.798-.09-1.57-.09H170.6v6.9zm1.932-6.2c.48 0 .822.04 1.028.12.206.08.373.212.5.398.126.186.19.392.19.62 0 .232-.063.443-.188.632-.125.19-.3.325-.524.41-.223.087-.57.13-1.034.13l-1.204-.01v-2.3h1.232zm-6.382-.7l-3.25 6.9h.768l1.06-2.25h2.912l1.044 2.25h.766l-3.2-6.9h-.1zm1.166 3.95h-2.258l1.137-2.416 1.12 2.416zm-11.584 2.95h.164l2.08-5.2 2.06 5.2h.153l1.91-6.9h-.71l-1.37 4.95-1.96-4.95h-.16l-1.98 4.95-1.35-4.95h-.73l1.88 6.9zm-4.682-6.2v6.2h.7v-6.2h1.55v-.7h-3.8v.7h1.55zm-5.5 6.2h.7v-3.35h2.7v-.7h-2.7V84.6h2.7v-.7h-3.4v6.9zm-6.863-6.572c-.552.32-.988.76-1.307 1.32-.32.564-.48 1.174-.48 1.832 0 .99.35 1.83 1.053 2.526.702.696 1.563 1.044 2.584 1.044 1.007 0 1.86-.35 2.562-1.048.7-.7 1.05-1.55 1.05-2.554 0-1.013-.36-1.866-1.06-2.56-.71-.69-1.58-1.038-2.62-1.038-.65 0-1.24.16-1.8.478zm3.3.57c.465.267.824.62 1.08 1.063.255.45.383.94.383 1.49s-.128 1.05-.384 1.5c-.255.45-.61.81-1.067 1.07-.46.26-.96.39-1.49.39-.81 0-1.49-.28-2.06-.84-.57-.56-.86-1.25-.86-2.07 0-.55.12-1.05.38-1.5.25-.45.61-.81 1.07-1.07.46-.26.94-.4 1.45-.4.52 0 1.01.14 1.48.4zm-9.342 5.808c.342.23.723.344 1.143.344.546 0 1.01-.184 1.39-.553.38-.37.572-.804.572-1.305 0-.347-.112-.692-.334-1.036-.224-.343-.635-.736-1.234-1.178-.505-.374-.804-.605-.894-.694-.167-.166-.282-.32-.344-.462-.063-.14-.094-.288-.094-.44 0-.248.09-.456.268-.626.18-.17.41-.256.69-.256.22 0 .422.055.607.166.185.11.41.338.673.684l.562-.427c-.317-.41-.618-.69-.902-.843-.285-.153-.59-.23-.916-.23-.308 0-.593.07-.855.21-.263.14-.466.33-.61.574-.145.243-.217.51-.217.806 0 .372.123.718.37 1.037.144.193.507.507 1.092.942.58.43.98.8 1.2 1.1.158.22.238.45.238.69 0 .2-.055.4-.163.58-.11.18-.267.33-.475.44-.207.11-.43.16-.665.16-.553 0-1.04-.4-1.46-1.2l-.587.35c.288.54.603.92.945 1.15zm-5.83-1.643l-.69-.713-1.045-1.097c.464-.406.776-.74.933-1 .158-.262.237-.51.237-.74 0-.22-.06-.427-.18-.622-.122-.19-.297-.35-.525-.46-.23-.11-.483-.17-.76-.17-.44 0-.806.14-1.1.4-.257.23-.385.52-.385.86 0 .2.048.41.146.63.098.22.318.56.66 1.02-.65.52-1.08.96-1.29 1.3-.21.34-.316.68-.316 1.02 0 .45.16.83.48 1.13.322.31.747.46 1.277.46.398 0 .777-.06 1.136-.2.358-.13.814-.42 1.368-.86l.89.91h.96l-.59-.61-.71-.73.84-.67-.43-.54-.89.72zm-2.732-3.204c-.056-.11-.083-.23-.083-.36 0-.17.07-.31.213-.43.142-.12.325-.18.55-.18.24 0 .428.06.572.17.143.11.215.25.215.41 0 .14-.057.3-.17.47-.164.25-.406.51-.727.77-.245-.32-.436-.61-.57-.88zm1.106 2.51l1.09 1.12c-.46.36-.87.63-1.24.8-.23.1-.47.16-.71.16-.32 0-.59-.1-.81-.31-.22-.2-.33-.44-.33-.7 0-.22.08-.47.26-.73.17-.26.54-.61 1.1-1.05.23.26.44.49.63.69zm-9.9 2.33c.34.23.72.34 1.14.34.54 0 1.01-.19 1.39-.56.38-.37.57-.81.57-1.31 0-.35-.12-.69-.34-1.04-.23-.35-.64-.74-1.24-1.18-.51-.38-.81-.61-.9-.7-.17-.17-.29-.32-.35-.47-.07-.14-.1-.29-.1-.44 0-.25.09-.46.26-.63.18-.17.41-.256.69-.256.22 0 .425.056.61.167.183.11.41.34.67.687l.563-.428c-.317-.41-.62-.69-.9-.85-.28-.153-.59-.23-.91-.23-.31 0-.596.07-.858.21-.26.14-.465.33-.61.574-.144.244-.216.51-.216.807 0 .37.12.72.37 1.04.144.19.51.507 1.09.94.58.43.98.8 1.2 1.107.16.23.24.46.24.69 0 .21-.055.4-.16.59-.11.18-.27.33-.48.44-.2.11-.43.16-.66.16-.55 0-1.04-.4-1.46-1.2l-.58.35c.284.54.6.93.94 1.16zm-5.4.19h3.9v-.7h-3.2v-2.65h3.2v-.7h-3.2V84.6h3.25v-.7h-3.95v6.9zm-8.4 0l.62-4.95 2.4 4.95h.22l2.47-4.95.68 4.95h.64l-.96-6.9h-.1l-2.82 5.65-2.75-5.65h-.27l-.87 6.9h.702zm-4.86-6.9l-3.25 6.9h.76l1.06-2.25h2.91l1.04 2.25h.76l-3.2-6.9h-.1zm1.16 3.95h-2.25l1.13-2.42 1.12 2.41zm-7.07-3.78c-.52-.22-1.06-.32-1.64-.32-.72 0-1.36.15-1.93.47-.57.31-1.02.75-1.34 1.31-.33.56-.49 1.16-.49 1.81 0 .87.28 1.64.85 2.3.74.86 1.75 1.29 3.03 1.29 1.05 0 1.89-.31 2.51-.94.623-.63.94-1.46.95-2.52h-2.95v.7h2.2c-.09.62-.388 1.12-.88 1.51-.497.39-1.1.58-1.816.58-.59 0-1.13-.13-1.624-.4-.495-.27-.88-.63-1.16-1.1-.28-.47-.42-.96-.42-1.48 0-.51.13-.99.4-1.44.27-.46.645-.82 1.13-1.085.485-.26 1-.394 1.54-.394.43 0 .874.1 1.33.305.455.207.875.5 1.26.9l.53-.507c-.485-.47-.985-.81-1.5-1.027zM277.3 53.5v4.688c-1.278-1.782-2.762-3.116-4.452-4.005-1.69-.89-3.58-1.333-5.666-1.333-3.614 0-6.706 1.305-9.276 3.913-2.57 2.607-3.856 5.746-3.856 9.417 0 3.748 1.273 6.93 3.82 9.547 2.547 2.615 5.62 3.923 9.22 3.923 2.024 0 3.89-.422 5.595-1.266 1.706-.843 3.244-2.1 4.615-3.773v13.74h3.3V53.5h-3.3zm-2.7 5.477c1.933 1.985 2.9 4.454 2.9 7.407 0 1.937-.43 3.68-1.293 5.227-.862 1.55-2.092 2.78-3.69 3.68-1.6.91-3.293 1.36-5.08 1.36-1.77 0-3.427-.45-4.97-1.37-1.547-.91-2.777-2.19-3.693-3.83-.916-1.64-1.374-3.36-1.374-5.15 0-1.81.454-3.53 1.363-5.15.907-1.62 2.13-2.89 3.668-3.78 1.54-.9 3.22-1.35 5.04-1.35 2.83 0 5.21 1 7.14 2.98zM244.5 53.5v4.688c-1.278-1.782-2.762-3.116-4.452-4.005-1.69-.89-3.578-1.333-5.666-1.333-3.614 0-6.706 1.305-9.276 3.913-2.57 2.607-3.856 5.746-3.856 9.417 0 3.748 1.273 6.93 3.82 9.547 2.547 2.615 5.62 3.923 9.22 3.923 2.024 0 3.89-.42 5.595-1.263 1.706-.84 3.244-2.098 4.615-3.77V79h3.3V53.5h-3.3zm-2.7 5.477c1.933 1.985 2.9 4.454 2.9 7.407 0 1.937-.43 3.68-1.293 5.227-.862 1.55-2.092 2.78-3.69 3.68-1.6.91-3.293 1.36-5.08 1.36-1.77 0-3.427-.45-4.97-1.37-1.547-.91-2.777-2.19-3.693-3.83-.916-1.64-1.374-3.36-1.374-5.15 0-1.81.454-3.53 1.363-5.15.907-1.62 2.13-2.89 3.668-3.78 1.54-.9 3.22-1.35 5.04-1.35 2.83 0 5.21 1 7.14 2.98zM177.4 79h3.3V68.204c0-3.184.316-5.55.948-7.095.632-1.55 1.608-2.78 2.928-3.69 1.32-.92 2.737-1.37 4.25-1.37 1.312 0 2.444.33 3.397.99.953.66 1.62 1.54 2.003 2.64s.574 3.19.574 6.26V79h3.3v-9.977c0-3.653.303-6.26.91-7.82.607-1.562 1.568-2.81 2.884-3.748 1.315-.936 2.765-1.405 4.353-1.405 1.307 0 2.43.313 3.373.937.942.625 1.607 1.448 1.996 2.47.39 1.023.584 2.9.584 5.633V79h3.35V65.08c0-3.185-.327-5.575-.982-7.168-.655-1.594-1.656-2.835-3.003-3.726-1.348-.89-2.902-1.336-4.663-1.336-1.886 0-3.646.52-5.282 1.56-1.636 1.038-3 2.557-4.09 4.557-.517-1.5-1.127-2.652-1.83-3.457-.706-.804-1.612-1.45-2.723-1.933-1.11-.485-2.286-.727-3.522-.727-1.83 0-3.575.498-5.234 1.494-1.2.75-2.37 1.937-3.52 3.562V53.5h-3.3V79zm-29.25 0h3.3v-9.36c0-3.36.156-5.674.47-6.94.498-1.94 1.532-3.566 3.102-4.88 1.57-1.313 3.346-1.97 5.33-1.97 1.732 0 3.138.427 4.216 1.278 1.077.852 1.792 2.123 2.144 3.812.226.985.338 2.948.338 5.887V79h3.3V65.878c0-3.467-.35-6.02-1.052-7.662-.7-1.64-1.786-2.944-3.258-3.913-1.472-.97-3.158-1.453-5.058-1.453-1.87 0-3.598.433-5.187 1.298-1.59.865-3.037 2.172-4.345 3.922V53.5h-3.3V79zm-10.7-25.5v4.688c-1.278-1.782-2.762-3.116-4.452-4.005-1.69-.89-3.578-1.333-5.666-1.333-3.614 0-6.706 1.305-9.276 3.913-2.57 2.607-3.856 5.746-3.856 9.417 0 3.748 1.273 6.93 3.82 9.547 2.547 2.615 5.62 3.923 9.22 3.923 2.024 0 3.89-.42 5.595-1.263 1.706-.84 3.244-2.098 4.615-3.77V79h3.3V53.5h-3.3zm-2.7 5.477c1.933 1.985 2.9 4.454 2.9 7.407 0 1.937-.43 3.68-1.293 5.227-.862 1.55-2.092 2.78-3.69 3.68-1.6.91-3.293 1.36-5.08 1.36-1.77 0-3.427-.45-4.97-1.37-1.547-.91-2.777-2.19-3.693-3.83-.916-1.64-1.374-3.36-1.374-5.15 0-1.81.454-3.53 1.362-5.15.908-1.62 2.13-2.89 3.668-3.78 1.538-.9 3.215-1.35 5.032-1.35 2.826 0 5.205 1 7.138 2.98zm-30.1-15.327v14.544c-1.28-1.782-2.767-3.117-4.46-4.008-1.695-.89-3.588-1.336-5.68-1.336-3.622 0-6.72 1.305-9.297 3.913-2.575 2.607-3.863 5.746-3.863 9.417 0 3.748 1.276 6.93 3.828 9.547 2.553 2.615 5.632 3.923 9.238 3.923 2.03 0 3.9-.42 5.61-1.263 1.708-.84 3.25-2.098 4.624-3.77V79h3.3V43.65h-3.3zm-2.707 15.327c1.938 1.985 2.907 4.454 2.907 7.407 0 1.937-.432 3.68-1.296 5.227-.864 1.55-2.098 2.78-3.7 3.68-1.604.91-3.3 1.36-5.09 1.36-1.776 0-3.437-.45-4.986-1.37-1.548-.91-2.782-2.19-3.7-3.83-.92-1.64-1.378-3.36-1.378-5.15 0-1.81.455-3.53 1.366-5.15.91-1.62 2.136-2.89 3.677-3.78 1.54-.9 3.222-1.35 5.044-1.35 2.832 0 5.218 1 7.156 2.98z"/>
</svg>
