<?xml version="1.0" standalone="no"?>
<!DOCTYPE svg PUBLIC "-//W3C//DTD SVG 1.1//EN" "http://www.w3.org/Graphics/SVG/1.1/DTD/svg11.dtd">
<svg xmlns="http://www.w3.org/2000/svg" viewBox="0 -5 1024 1024">
    <path fill="#fff" fill-rule="evenodd" d="M745 25.4c0 13.8-101.5 83-120 106-18.4 13.8-32.3 41.5-50.7 60-9.3 13.8-27.7 27.6-37 36.8h415.2c13.8-4.6 27.7-9.2 41.5-9.2 27.7 0 18.5 27.7 23 50.7l4.7 521c-4.6 46.2 4.6 87.7-13.8 124.6-23.2 18.4-74 9.2-97 9.2-9.2 13.8-13.8 32.3-23 46-9.3 14-37 32.4-46.2 32.4-32.3 0-147.6-27.8-115.3-92.4h-475c-4.7 18.5-9.3 106-60 106-110.8 0-55.4-101.3-83-101.3-14 0-50.8 18.4-64.7 18.4-9.2 0-41.5-83-41.5-87.6V509.6C11.5 408 7 306.5 34.6 209.8c37 4.6 101.5 18.4 115.3 18.4H468c-37-46-203-156.7-203-175.2 0-18.4 14-18.4 18.5-18.4 13.8 0 180 129 216.8 170.6 13.8-9.2 32.3-23 46-37 14-13.7 27.8-41.4 41.6-55.2C629.7 71.5 712.7 2.3 726.6 2.3c9.2 0 18.4 9.2 18.4 23zM154.4 269.7l821-4.6v622.6H902c-32.3-4.6-69.2-13.8-106-18.5L108.3 874C94.6 878.4 80.7 883 67 883c-9.3 0-18.6-18.5-18.6-27.7V445C53 380.3 57.7 315.7 67 251.2c27.6 9.2 73.7 18.4 87.5 18.4zM459 325c23 0 207.5-23 276.7-23 156.8-9.2 161.5-4.6 175.3-4.6 18.4 0 32.3 41.5 32.3 60l-4.6 479.5h-835c-4.5 0-9-4.7-9-14 0-13.8 9-64.5 18.3-96.8l-4.6-401c-4.6-41.6 18.4-32.4 37-32.4C246.7 292.8 339 325 459 325zm133.7 27.7h97c13.7-4.6 23-9.2 36.8-9.2h166v452H140.7c4.6-27.8 9.2-50.8 13.8-69.3 0-433.4 0-198.3-4.6-392 110.6 9.3 299.7 32.4 309 32.4 18.4 0 129-14 133.7-14zm244.5 97c0 32-32.3 41.4-50.7 41.4-32.3 0-50.8-23-50.8-50.7 0-27.6 18.5-41.5 41.5-41.5 41.5 0 60 27.7 60 50.8zm-549 83c0 36.7-36.8 41.4-50.7 41.4-41.5 0-55.3-32.2-55.3-60 0-32.2 18.4-41.4 50.7-41.4 36.8 0 55.3 41.5 55.3 60zm332.2 198c0 14-13.8 23.2-23 27.8H445c-9-9.2-18.3-13.8-18.3-23 0-37 73.8-110.7 106-110.7 27.7 0 87.7 106 87.7 106zm235.2 193.8c4.7 4.6 4.7 0 4.7 9.2 0 13.8-18.5 27.7-27.7 27.7-14 0-41.5-14-64.6-23v-18.5c73.8-9.4 55.4 4.5 87.6 4.5zM210 920c-9.4 23-4.7 55.2-32.4 55.2-14 0-9.2-4.6-18.5-4.6V920h51z"/>
</svg>
