<?xml version="1.0" standalone="no"?>
<!DOCTYPE svg PUBLIC "-//W3C//DTD SVG 1.1//EN" "http://www.w3.org/Graphics/SVG/1.1/DTD/svg11.dtd">
<svg xmlns="http://www.w3.org/2000/svg" viewBox="0 0 256 288">
    <path fill="#5C8DBC" d="M255.57 84.72c0-4.83-1.04-9.1-3.13-12.76-2.05-3.6-5.12-6.62-9.24-9-34.03-19.63-68.1-39.2-102.1-58.83-9.17-5.3-18.06-5.1-27.16.27-13.55 8-81.35 46.84-101.55 58.54C4 67.76 0 75.14 0 84.7v118.4c0 4.72 1 8.9 3 12.5 2.04 3.72 5.16 6.83 9.37 9.27 20.2 11.7 88.02 50.54 101.56 58.53 9.1 5.38 18 5.57 27.17.27 34.02-19.64 68.08-39.2 102.1-58.8 4.23-2.46 7.34-5.56 9.4-9.27 2-3.6 2.98-7.8 2.98-12.52V84.72"/>
    <path fill="#1A4674" d="M128.18 143.5L2.98 215.6c2.06 3.7 5.18 6.8 9.4 9.25 20.2 11.7 88 50.54 101.55 58.53 9.1 5.38 18 5.57 27.17.27 34.02-19.64 68.08-39.2 102.1-58.8 4.23-2.46 7.34-5.56 9.4-9.27L128.18 143.5"/>
    <path fill="#1A4674" d="M91.1 164.86c7.3 12.72 20.98 21.3 36.7 21.3 15.8 0 29.57-8.7 36.82-21.54l-36.44-21.1-37.08 21.34"/>
    <path fill="#1B598E" d="M255.57 84.72c0-4.83-1.04-9.1-3.13-12.76L128.2 143.5l124.4 72.08c2-3.6 3-7.8 3-12.5V84.7"/>
    <path fill="#FFF" d="M248.73 148.66H239v9.73h-9.72v-9.8h-9.72v-9.7h9.72v-9.7H239v9.7h9.73v9.7m-35.48 0h-9.72v9.7h-9.72v-9.74h-9.7v-9.7h9.7v-9.7h9.8v9.7h9.7v9.72"/>
    <path fill="#FFF" d="M164.62 164.62c-7.25 12.85-21.02 21.54-36.83 21.54-15.8 0-29.4-8.58-36.7-21.3a42.06 42.06 0 0 1-5.6-20.97c0-23.4 18.9-42.3 42.2-42.3 15.6 0 29.2 8.4 36.52 21l36.94-21.3c-14.68-25.36-42.1-42.4-73.5-42.4C80.9 59 42.9 97 42.9 143.82c0 15.4 4.1 29.8 11.24 42.27 14.64 25.4 42.13 42.6 73.63 42.6 31.55 0 59.08-17.27 73.7-42.8l-36.87-21.4"/>
</svg>
