<?xml version="1.0" standalone="no"?>
<!DOCTYPE svg PUBLIC "-//W3C//DTD SVG 1.1//EN" "http://www.w3.org/Graphics/SVG/1.1/DTD/svg11.dtd">
<svg xmlns="http://www.w3.org/2000/svg" viewBox="0 0 466 423.89">
    <path fill="#22B8EB" fill-rule="evenodd" d="M242.13 168.48h47.15v48.2h23.84c11 0 22.33-1.97 32.75-5.5 5.12-1.73 10.87-4.15 15.93-7.2-6.66-8.68-10.06-19.65-11.06-30.47-1.36-14.7 1.6-33.8 11.57-45.3l5-5.7 5.9 4.8c14.9 12 27.4 28.7 29.6 47.7 17.9-5.2 39-4 54.7 5.1l6.5 3.8-3.4 6.68c-13.4 26-41.3 34.1-68.6 32.64C351.2 324.9 262.3 373 154.6 373 99 373 47.9 352.2 18.8 302.8l-.5-.8-4.2-8.6c-9.9-22-13.1-45.8-10.9-69.6l.63-7.12h40.4v-48.2h47.1v-47.14h94.3V74.2h56.6v94.28z" clip-rule="evenodd"/>
    <path fill="#FFF" fill-rule="evenodd" d="M86.2 179.74h3.24v34.06H86.2v-34.06zm-6.18 0h3.35v34.06h-3.35v-34.06zm-6.2 0h3.36v34.06h-3.35v-34.06zm-6.18 0H71v34.06h-3.36v-34.06zm-6.2 0h3.36v34.06h-3.35v-34.06zm-6.06 0h3.23v34.06h-3.2v-34.06zm-3.4-3.4h40.86v40.86H51.98v-40.86zm81.37-43.74h3.23v34.05h-3.23V132.6zm-6.18 0h3.35v34.05h-3.36V132.6zm-6.2 0h3.36v34.05h-3.36V132.6zm-6.2 0h3.37v34.05h-3.36V132.6zm-6.18 0h3.3v34.05h-3.4V132.6zm-6.1 0h3.2v34.05h-3.2V132.6zm-3.4-3.4h40.8v40.85H99.1V129.2zm34.2 50.54h3.2v34.06h-3.3v-34.06zm-6.2 0h3.3v34.06H127v-34.06zm-6.2 0h3.3v34.06h-3.4v-34.06zm-6.2 0h3.3v34.06h-3.4v-34.06zm-6.2 0h3.3v34.06h-3.4v-34.06zm-6.1 0h3.2v34.06h-3.2v-34.06zm-3.4-3.4h40.8v40.86H99.1v-40.86zm81.3 3.4h3.2v34.06h-3.2v-34.06zm-6.2 0h3.3v34.06h-3.37v-34.06zm-6.2 0h3.3v34.06H168v-34.06zm-6.2 0h3.3v34.06h-3.38v-34.06zm-6.2 0h3.4v34.06h-3.4v-34.06zm-6.1 0h3.2v34.06h-3.24v-34.06zm-3.4-3.4h41v40.86h-40.8v-40.86zm34.2-43.74h3.2v34.05h-3.2V132.6zm-6.2 0h3.34v34.05H174V132.6zm-6.2 0h3.34v34.05H168V132.6zm-6.2 0h3.4v34.05h-3.37V132.6zm-6.2 0h3.4v34.05h-3.37V132.6zm-6.05 0h3.2v34.05h-3.24V132.6zm-3.4-3.4h41v40.85h-40.8V129.2zm81.35 50.54h3.2v34.06h-3.2v-34.06zm-6.2 0h3.37v34.06h-3.34v-34.06zm-6.2 0h3.38v34.06H215v-34.06zm-6.2 0h3.38v34.06H209v-34.06zm-6.2 0h3.4v34.06h-3.33v-34.06zm-6.03 0h3.3v34.06h-3.23v-34.06zm-3.4-3.4H234v40.86h-40.8v-40.86zm34.2-43.74h3.24v34.05h-3.24V132.6zm-6.2 0h3.4v34.05h-3.36V132.6zm-6.2 0h3.4v34.05H215V132.6zm-6.16 0h3.34v34.05H209V132.6zm-6.2 0h3.4v34.05h-3.32V132.6zm-6.1 0h3.3v34.05h-3.2V132.6zm-3.4-3.4h41v40.85h-40.8V129.2zm34.25-43.75h3.22v34.05h-3.23V85.45zm-6.2 0h3.36v34.05h-3.32V85.45zm-6.2 0h3.4v34.05H215V85.45zm-6.18 0H212v34.05h-3V85.45zm-6.2 0h3.4v34.05h-3.34V85.45zm-6.06 0h3.3v34.05h-3.23V85.45zm-3.4-3.4h41v40.86h-40.7V82.1zm81.38 97.7h3.2v34.05h-3.2v-34.06zm-6.2 0h3.38v34.05h-3.32v-34.06zm-6.2 0h3.4v34.05H262v-34.06zm-6.2 0h3.4v34.05H256v-34.06zm-6.2 0h3.4v34.05h-3v-34.06zm-6.02 0h3.3v34.05h-3.24v-34.06zm-3.4-3.4h40.9v40.85h-40.7v-40.86zm-103.1 107.1c6.2 0 11.3 5.04 11.3 11.27 0 6.22-5.05 11.27-11.27 11.27s-11.2-5.1-11.2-11.3c0-6.3 5.03-11.3 11.26-11.3" clip-rule="evenodd"/>
    <path fill="#22B8EB" fill-rule="evenodd" d="M137.43 286.64c1.03 0 2 .2 2.92.55-.98.5-1.65 1.6-1.65 2.8 0 1.8 1.48 3.3 3.3 3.3 1.24 0 2.33-.7 2.9-1.7.38.9.6 2 .6 3.1 0 4.4-3.6 8-8.07 8-4.46 0-8.08-3.6-8.08-8.1s3.62-8.1 8.08-8.1" clip-rule="evenodd"/>
    <path fill="#FFF" d="M167.4 364.68c-27.92-13.25-43.24-31.26-51.77-50.92-10.37 2.96-22.84 4.85-37.32 5.67-5.4.3-11.1.46-17.2.46-6.9 0-14.2-.2-21.9-.7 25.6 25.6 57.1 45.3 115.4 45.6 4.3 0 8.6-.1 12.9-.3z"/>
</svg>
