<svg xmlns="http://www.w3.org/2000/svg" viewBox="5 0 180 129">
    <path fill="#002b64" fill-rule="evenodd" d="M180.87 5c-2.78.1-1.9.9-7.9 2.37-6.07 1.5-13.47 1.03-20 3.77-19.5 8.18-23.4 36.12-41.13 46.13-13.24 7.48-26.6 8.08-38.62 11.84-7.9 2.5-16.54 7.6-23.7 13.8-5.54 4.8-5.7 9-11.5 15-6.2 6.4-24.66.1-33.02 10 2.7 2.7 3.87 3.5 9.2 2.8-1.1 2.1-7.6 3.9-6.33 6.9 1.34 3.3 17 5.5 31.25-3.1 6.64-4 11.92-9.8 22.25-11.2 13.37-1.7 28.78 1.2 44.25 3.4-2.3 6.9-6.9 11.4-10.6 16.9-1.13 1.3 2.3 1.4 6.23.7 7.06-1.73 12.14-3.13 17.47-6.23 6.54-3.8 7.53-13.6 15.56-15.7 4.47 6.9 16.64 8.5 24.2 3-6.64-1.87-8.47-15.97-6.23-22.2 2.12-5.86 4.2-15.27 6.34-23.04 2.2-8.33 3.1-18.85 5.9-23.1 4.1-6.4 8.7-8.6 12.7-12.2 4-3.6 7.6-7.13 7.5-15.4-.1-2.7-1.4-4.16-4-4.1z"/>
    <path fill="#c49a6c" d="M10.75 116.87c10.15 1.45 16.32 0 24.46-3.54 7-3 13.7-9.2 21.9-11.83 12-3.85 25.2 0 38.1.78 3.2.2 6.3.2 9.3-.15 4.8-2.94 4.7-13.94 9.4-14.95-.1 15.44-6.4 24.7-13.1 33.65 14-2.47 22.3-10.54 28-21.3 1.7-3.28 3.2-6.8 4.5-10.48 2 1.53.9 6.2 1.9 8.72 9.7-5.35 15.2-17.57 18.8-29.92 4.2-14.3 5.9-28.78 8.7-33.02 2.67-4.13 6.8-6.67 10.57-9.32 4.26-3 8.1-6.1 8.74-11.8-4.54-.4-5.6-1.4-6.25-3.7-2.26 1.3-4.34 1.6-6.7 1.7-2.03.1-4.27 0-7 .3-22.63 2.4-25.5 27.3-40 41.4-1.07 1.1-2.2 2-3.4 2.9-5.1 3.8-11.3 6.5-17.05 8.7-9.3 3.6-18.1 3.8-26.8 6.9-6.4 2.3-12.9 5.5-18.14 9.1-1.3.9-2.52 1.8-3.7 2.8-3.04 2.5-5.1 5.3-7 8.2-2 2.98-4 6-6.96 8.9-4.8 4.76-22.8 1.4-29.1 5.8-.7.5-1.3 1.08-1.67 1.78 3.46 1.6 5.77.6 9.74 1.08.5 3.77-8.2 6-6.9 7.75z"/>
    <path fill="#c49a6c" fill-rule="evenodd" d="M147.84 89.73c.27 4.32 2.78 12.9 5 14.98-4.35 1.1-11.82-.6-13.74-3.7 1-4.4 6.1-8.4 8.74-11.2z" clip-rule="evenodd"/>
    <path fill="#002b64" fill-rule="evenodd" d="M154.2 21.14c3.2 2.78 9.92.54 8.7-5-4.96-.4-7.85 1.3-8.7 5z" clip-rule="evenodd"/>
    <path fill="#002b64" d="M176.52 14.67c-.85 1.8-2.48 4.1-2.48 8.64 0 .8-.6 1.4-.6.2.04-4.4 1.22-6.3 2.47-8.9.6-1 1-.6.7.2zm-.86-.67c-1 1.7-3.42 4.8-3.82 9.34-.07.78-.7 1.26-.6.06.43-4.42 2.36-7.2 3.83-9.6.66-.98.98-.52.6.2zm-.78-.9c-1.14 1.62-4.87 5.35-5.65 9.84-.14.76-.8 1.2-.6 0 .8-4.37 4-7.8 5.67-10.08.75-.92 1.02-.44.58.24zm-.7-1c-1.36 1.45-5.8 6.2-7.2 10.54-.24.74-.97 1.07-.6-.08 1.4-4.22 5.3-8.76 7.26-10.78.87-.8 1.08-.3.54.33z"/>
</svg>
