<?xml version="1.0" standalone="no"?>
<!DOCTYPE svg PUBLIC "-//W3C//DTD SVG 1.1//EN" "http://www.w3.org/Graphics/SVG/1.1/DTD/svg11.dtd">
<svg xmlns="http://www.w3.org/2000/svg" viewBox="0 0 256 251">
    <path fill="#DF4F4F" d="M.4.4l219 232s7.4 5 13-1c5.8-6 1.4-12.3 1.4-12.3L.4.5zm69.3 22L236.4 202s7.5 5.3 13.2-.8c5.7-6.2 1.3-12.3 1.3-12.3L69.6 22.2zM21 69.2L187.8 249s7.5 5.2 13.2-1c5.6-6 1.2-12.2 1.2-12.2L21.2 69.2zm107.3-28l116.5 125.5s5.2 3.7 9.2-.6c4-4.2 1-8.5 1-8.5L128.2 41.2zM37 123.6L153.6 249s5.2 3.8 9.2-.5c4-4.3 1-8.6 1-8.6L37 123.5zm151.2-55.2l52.7 57s2.5 1.8 4.5-.3c2-2 .4-4 .4-4L188 68.5zm-122 113l52.8 57s2.6 1.8 4.6-.2c2-2 .4-4 .4-4l-57.8-52.8z"/>
</svg>
