<?xml version="1.0" standalone="no"?>
<!DOCTYPE svg PUBLIC "-//W3C//DTD SVG 1.1//EN" "http://www.w3.org/Graphics/SVG/1.1/DTD/svg11.dtd">
<svg xmlns="http://www.w3.org/2000/svg" viewBox="0 0 365 360">
    <path fill="#fff" d="M319 51.4C290.6 26.4 250.5 12 204 12 82.5 12 0 105.6 0 105.6l23.4 37s12.8 1 6-20.7c6-11.2 17.4-26.2 40-43.5v246c-9.8 2.6-22.6 7.8-14 16.5h67c8.7-8.8-5.2-14-13.6-16.6v-58s45.7 18 95 18c43.5 0 83-13 112.3-36.2s48.3-57.8 48.2-97.4a130.5 130.5 0 0 0-45-99.4m-119.4 210c-38 0-70-7.3-91-17.7V59.3c23-16.5 60.7-26.6 91-26.6 37 0 65.8 14 85.4 35s30.2 49.7 30.3 82.5c0 32-11.5 58.3-31.8 78.6-20.3 20-49.8 32.7-84 32.6z"/>
</svg>
