<?xml version="1.0" standalone="no"?>
<!DOCTYPE svg PUBLIC "-//W3C//DTD SVG 1.1//EN" "http://www.w3.org/Graphics/SVG/1.1/DTD/svg11.dtd">
<svg xmlns="http://www.w3.org/2000/svg" width="3617" height="3617">
    <path fill="#222" d="M1 1h3616v3616H0z"/>
    <circle cx="1807" cy="1807" r="303" fill="#00d8ff"/>
    <path d="M1807 1192c406 0 783 58 1068 156 342 118 553 297 553 459 0 169-223 359-591 481-279 92-645 140-1031 140-395 0-769-45-1051-141-356-122-570-314-570-480 0-161 201-338 539-456 286-99 672-159 1082-159z" fill="none" stroke="#00d8ff" stroke-width="144.7456" stroke-miterlimit="10"/>
    <path d="M1271 1501c203-352 442-649 669-847 274-238 534-331 674-250 146 84 199 373 121 753-59 287-200 628-393 962-197 343-424 644-648 840-283 248-557 337-700 255-139-81-193-344-126-695 56-298 198-662 403-1018z" fill="none" stroke="#00d8ff" stroke-width="144.7456" stroke-miterlimit="10"/>
    <path d="M1272 2120a3396 3396 0 0 1-400-1003c-70-356-21-628 119-709 146-84 423 14 713 271 219 195 444 488 638 821 198 343 346 689 404 981 73 369 14 651-130 734-139 81-393-5-664-238a3426 3426 0 0 1-680-857z" fill="none" stroke="#00d8ff" stroke-width="144.7456" stroke-miterlimit="10"/>
</svg>
